<?xml version="1.0" encoding="UTF-8"?>
<!DOCTYPE svg PUBLIC "-//W3C//DTD SVG 1.1//EN" "http://www.w3.org/Graphics/SVG/1.1/DTD/svg11.dtd">
<!-- Creator: CorelDRAW X7 -->
<svg xmlns="http://www.w3.org/2000/svg" xml:space="preserve" width="11.6929in" height="8.26772in" version="1.1" style="shape-rendering:geometricPrecision; text-rendering:geometricPrecision; image-rendering:optimizeQuality; fill-rule:evenodd; clip-rule:evenodd"
viewBox="0 0 11693 8268"
 xmlns:xlink="http://www.w3.org/1999/xlink">
 <defs>
  <style type="text/css">
   <![CDATA[
    .fil1 {fill:#99CC66}
    .fil0 {fill:#CC6633;fill-rule:nonzero}
   ]]>
  </style>
 </defs>
 <g id="Layer_x0020_1">
  <metadata id="CorelCorpID_0Corel-Layer"/>
  <g id="_2141158536192">
   <path class="fil0" d="M1667 3418c91,0 177,19 261,57 83,38 155,90 214,156 134,143 201,311 201,503 0,195 -67,362 -201,503 -59,66 -131,118 -214,156 -84,37 -170,56 -261,56 -94,0 -183,-19 -267,-56 -84,-38 -157,-90 -219,-156 -132,-138 -197,-306 -197,-503 0,-196 65,-364 197,-503 131,-142 293,-213 486,-213zm1763 1199c34,10 57,33 69,67 10,29 8,57 -6,84 -13,26 -34,45 -63,55 -16,4 -31,6 -44,6l-2 0c-29,0 -55,-7 -77,-21 -26,-15 -47,-38 -64,-70 -28,-58 -42,-138 -42,-238 -1,-35 -9,-63 -24,-86 -10,-18 -30,-38 -59,-58 -35,-22 -72,-38 -111,-47l-235 0 0 431c0,30 -11,56 -33,77 -22,22 -48,32 -78,32 -31,0 -57,-10 -78,-32 -21,-21 -32,-47 -32,-77l0 -1173c0,-30 11,-56 32,-77 21,-21 47,-32 78,-32l2 0 353 0c118,0 219,42 302,125 82,84 124,185 124,302 0,132 -52,240 -155,326 28,22 51,46 69,74 44,63 66,135 66,215 -1,43 1,82 8,117zm-414 -529c57,0 106,-20 146,-59 39,-40 59,-88 59,-144 0,-57 -20,-105 -59,-146 -40,-40 -89,-60 -146,-60l-244 0 0 409 244 0zm1322 761c-203,0 -376,-69 -519,-207 -143,-139 -215,-307 -215,-506 0,-199 72,-368 215,-508 143,-140 316,-210 519,-210 171,0 322,52 453,155 25,19 39,44 43,76 4,32 -3,60 -21,85 -19,24 -44,38 -76,42 -32,4 -60,-4 -85,-24 -93,-71 -198,-107 -314,-107 -145,0 -264,48 -358,145 -99,95 -149,211 -149,346 0,132 50,246 149,342 94,96 213,145 358,145 94,0 184,-25 272,-76l0 -272 -284 0c-31,0 -57,-11 -80,-34 -22,-22 -34,-49 -34,-79 0,-32 11,-59 33,-80 22,-21 49,-32 81,-32l391 0 2 0 2 0c32,0 59,11 82,32 22,21 33,48 33,80l0 439c0,5 -1,12 -3,20 -1,8 -3,12 -3,14 0,1 0,3 -1,5 -2,2 -2,3 -2,5l0 2c-7,18 -20,34 -38,47 -133,104 -283,155 -451,155zm1597 -69l-97 -259 -483 0 -98 259c-18,46 -53,69 -103,69 -13,0 -26,-2 -38,-6 -29,-10 -50,-30 -62,-57 -13,-28 -14,-57 -3,-86l439 -1170c9,-21 23,-39 43,-52 19,-13 40,-19 62,-18 51,-2 86,21 106,70l439 1170c10,29 9,58 -3,86 -13,27 -34,47 -63,57 -10,4 -23,6 -38,6 -50,0 -84,-23 -101,-69zm-501 -477l322 0 -161 -427 -161 427zm1041 -388l0 825c0,29 -10,55 -32,76 -21,22 -46,33 -75,33 -31,0 -56,-10 -78,-32 -21,-21 -31,-47 -31,-77l0 -1155 0 -2c-3,-38 12,-69 43,-91 26,-17 53,-24 82,-19 29,5 52,19 69,43l642 888 0 -819c0,-29 11,-54 32,-75 21,-21 46,-32 76,-32 29,0 54,11 76,32 22,21 33,46 33,75l0 1155c0,30 -11,56 -33,77 -22,22 -47,32 -76,32 -32,0 -59,-13 -82,-39 -5,-6 -9,-10 -10,-12l-636 -883zm1139 934c-31,0 -57,-10 -78,-32 -21,-21 -32,-47 -32,-77l0 -1173c0,-30 11,-56 32,-77 21,-21 47,-32 78,-32l2 0 4 0 643 0c30,0 55,11 77,32 22,21 33,47 33,77 0,31 -11,57 -33,79 -22,22 -47,33 -77,33l-538 0 0 363 463 0c29,0 55,11 76,33 22,22 33,48 33,77 0,30 -10,56 -32,78 -21,22 -47,33 -77,33l-463 0 0 366 538 0c30,0 55,11 77,32 22,22 33,48 33,79 0,29 -11,55 -33,76 -22,22 -47,33 -77,33l-643 0 -4 -2 -2 2zm1023 0c-31,0 -57,-10 -78,-32 -21,-21 -32,-47 -32,-77l0 -1173c0,-30 11,-56 32,-77 21,-21 47,-32 78,-32 30,0 56,11 78,32 22,21 33,47 33,77l0 1062 538 0c30,0 55,11 77,32 22,22 33,48 33,79 0,29 -11,55 -33,76 -22,22 -47,33 -77,33l-643 0 -4 0 -2 0zm1396 -1431c90,0 177,19 261,57 83,38 155,90 214,156 134,143 201,311 201,503 0,195 -67,362 -201,503 -59,66 -131,118 -214,156 -84,37 -171,56 -261,56 -94,0 -183,-19 -267,-56 -84,-38 -157,-90 -220,-156 -131,-138 -196,-306 -196,-503 0,-196 65,-364 196,-503 132,-142 294,-213 487,-213zm314 1062c90,-94 135,-210 135,-346 0,-135 -45,-251 -135,-348 -87,-94 -192,-141 -314,-141 -127,0 -234,47 -322,141 -90,94 -135,210 -135,348 0,138 45,253 135,346 89,95 197,143 322,143 121,0 226,-48 314,-143z"/>
   <g>
    <path class="fil1" d="M1666 4666c260,-288 225,-918 0,-1106 -237,156 -225,642 -144,884 37,108 72,143 144,222z"/>
    <path class="fil1" d="M1786 4651c392,-137 482,-678 150,-938 25,541 45,516 -150,938z"/>
    <path class="fil1" d="M1374 3733c-64,49 -24,7 -77,68 -8,9 -28,37 -35,48 -192,292 -54,688 267,797 -185,-335 -190,-479 -155,-913z"/>
   </g>
  </g>
 </g>
</svg>
